<svg width="31" height="31" viewBox="0 0 31 31" fill="none" xmlns="http://www.w3.org/2000/svg">
<path d="M10.8869 24.304L6.26202 26.8267C5.99062 26.9747 5.74672 27.1566 5.51978 27.3549C8.21619 29.6284 11.697 31 15.5 31C19.275 31 22.7335 29.6489 25.4224 27.4063C25.1744 27.197 24.9053 27.0086 24.607 26.86L19.6546 24.3841C19.0147 24.0642 18.6105 23.4103 18.6105 22.6949V20.7519C18.7498 20.5934 18.9088 20.3898 19.0791 20.1494C19.754 19.196 20.2647 18.1473 20.6185 17.0471C21.2537 16.8511 21.7217 16.2645 21.7217 15.5673V13.4932C21.7217 13.037 21.5187 12.6293 21.2034 12.3439V9.34563C21.2034 9.34563 21.8193 4.67984 15.5006 4.67984C9.18187 4.67984 9.79777 9.34563 9.79777 9.34563V12.3439C9.48193 12.6293 9.27955 13.037 9.27955 13.4932V15.5673C9.27955 16.1136 9.56674 16.5944 9.99664 16.8722C10.5149 19.1282 11.8719 20.7519 11.8719 20.7519V22.647C11.8713 23.3372 11.4934 23.973 10.8869 24.304Z" fill="#E7ECED"/>
<path d="M15.765 0.00236917C7.20607 -0.143857 0.148597 6.67614 0.0023707 15.2351C-0.0806859 20.088 2.0823 24.4497 5.52622 27.3502C5.75141 27.1537 5.99297 26.9735 6.26145 26.8273L10.8863 24.3046C11.4928 23.9736 11.8707 23.3378 11.8707 22.6464V20.7513C11.8707 20.7513 10.5131 19.1276 9.99548 16.8716C9.56616 16.5938 9.27839 16.1136 9.27839 15.5667V13.4926C9.27839 13.0364 9.48135 12.6287 9.79662 12.3433V9.34507C9.79662 9.34507 9.18071 4.67927 15.4994 4.67927C21.8182 4.67927 21.2023 9.34507 21.2023 9.34507V12.3433C21.5181 12.6287 21.7205 13.0364 21.7205 13.4926V15.5667C21.7205 16.2639 21.2526 16.8506 20.6174 17.0465C20.2635 18.1467 19.7529 19.1955 19.0779 20.1489C18.9077 20.3893 18.7486 20.5928 18.6094 20.7513V22.6944C18.6094 23.4097 19.0136 24.0642 19.6534 24.3836L24.6058 26.8595C24.903 27.008 25.1714 27.1958 25.4189 27.4046C28.7587 24.6193 30.9164 20.4548 30.9965 15.765C31.1439 7.20607 24.3245 0.148596 15.765 0.00236917Z" fill="#556080"/>
</svg>
