<svg width="106" height="106" viewBox="0 0 106 106" fill="none" xmlns="http://www.w3.org/2000/svg">
<path d="M84.991 40.3883C84.991 33.4143 79.3423 27.7656 72.3684 27.7656C65.3944 27.7656 59.7457 33.4143 59.7457 40.3883C59.7457 47.3622 65.3944 53.0109 72.3684 53.0109C79.3423 53.0109 84.991 47.3622 84.991 40.3883ZM71.6731 49.0134C71.3255 49.0134 71.1517 48.8178 71.1517 48.4702C71.1517 48.1878 71.1517 47.9271 71.1517 47.6446C71.1517 47.0363 71.13 47.0146 70.5434 46.9277C69.8047 46.8191 69.0878 46.6453 68.3926 46.3194C67.8711 46.0587 67.806 45.9283 67.958 45.3634C68.0667 44.9507 68.1753 44.5379 68.3057 44.1251C68.4577 43.6471 68.5881 43.5819 69.0226 43.8209C69.7613 44.212 70.5651 44.4292 71.3907 44.5379C71.9339 44.603 72.4553 44.5596 72.955 44.3423C73.8892 43.9296 74.0195 42.865 73.2374 42.2132C72.9767 41.996 72.6725 41.8222 72.3466 41.6918C71.5428 41.3442 70.6738 41.0618 69.9134 40.6055C68.675 39.8668 67.8711 38.824 67.958 37.3249C68.0667 35.6086 69.0226 34.544 70.6086 33.9575C71.2604 33.7185 71.2604 33.7402 71.2604 33.045C71.2604 32.806 71.2604 32.5887 71.2604 32.3497C71.2821 31.8283 71.369 31.7414 71.8687 31.7414C72.0208 31.7414 72.1946 31.7414 72.3466 31.7414C73.4329 31.7414 73.4329 31.7414 73.4329 32.8277C73.4329 33.5881 73.4329 33.5881 74.1933 33.7185C74.7799 33.8054 75.3448 33.9792 75.8879 34.2182C76.1921 34.3485 76.3007 34.5658 76.2138 34.8699C76.0835 35.3479 75.9531 35.8041 75.801 36.2821C75.649 36.7166 75.5186 36.7818 75.1058 36.5863C74.2585 36.1735 73.3678 35.9997 72.4335 36.0648C72.1946 36.0866 71.9556 36.1083 71.7166 36.2169C70.9127 36.5645 70.7824 37.4553 71.4559 38.0202C71.8035 38.3026 72.1946 38.4981 72.6074 38.6719C73.3243 38.9761 74.0412 39.2585 74.7147 39.6279C76.8873 40.8228 77.4739 43.5385 75.9314 45.4069C75.3882 46.0804 74.6713 46.5366 73.824 46.7539C73.4547 46.8625 73.3026 47.0363 73.3026 47.4274C73.3243 47.7967 73.3026 48.1661 73.3026 48.5354C73.3026 48.8613 73.1288 49.0568 72.8029 49.0568C72.477 49.0351 72.0642 49.0351 71.6731 49.0134Z" fill="white" fill-opacity="0.26"/>
<path d="M54.0101 44.5159C55.9419 44.5159 57.508 42.9499 57.508 41.0181C57.508 39.0863 55.9419 37.5203 54.0101 37.5203C52.0783 37.5203 50.5123 39.0863 50.5123 41.0181C50.5123 42.9499 52.0783 44.5159 54.0101 44.5159Z" fill="white" fill-opacity="0.26"/>
<path d="M90.7483 44.5159C92.6801 44.5159 94.2462 42.9499 94.2462 41.0181C94.2462 39.0863 92.6801 37.5203 90.7483 37.5203C88.8165 37.5203 87.2505 39.0863 87.2505 41.0181C87.2505 42.9499 88.8165 44.5159 90.7483 44.5159Z" fill="white" fill-opacity="0.26"/>
<path d="M100.264 19.7922H45.2764C42.1044 19.7922 39.5191 22.3776 39.5191 25.5496V44.7551C40.3664 44.7116 41.2137 44.6899 42.0827 44.6899C42.8866 44.6899 43.6687 44.7116 44.4508 44.7551V31.7848C44.9071 31.8935 45.385 31.9586 45.8847 31.9586C49.1001 31.9586 51.7289 29.3516 51.7289 26.1144C51.7289 25.6147 51.6638 25.1368 51.5551 24.6805H94.3765C94.3113 25.0281 94.2679 25.3975 94.2679 25.7451C94.2679 28.9605 96.875 31.5893 100.112 31.5893C100.46 31.5893 100.807 31.5458 101.133 31.5024V49.2089C100.807 49.1437 100.46 49.122 100.112 49.122C96.8967 49.122 94.2679 51.729 94.2679 54.9662C94.2679 55.3355 94.3113 55.6831 94.3765 56.0307H63.6781C63.6781 56.1611 63.6781 56.2914 63.6781 56.4218C63.6781 56.487 63.6781 56.5304 63.6781 56.5956V60.9625H100.242C103.414 60.9625 106 58.3771 106 55.2052V25.5496C106.021 22.3776 103.436 19.7922 100.264 19.7922Z" fill="white" fill-opacity="0.26"/>
<path d="M5.86594 47.9269C9.0379 49.1218 13.231 49.7736 17.663 49.7736C20.0094 49.7736 22.2906 49.5781 24.3763 49.2305C25.5277 48.3614 27.0051 47.5359 28.8952 46.8406C30.7853 46.1454 32.9796 45.6023 35.326 45.2547V42.1044C35.326 42.061 35.326 42.0175 35.326 41.9741C35.326 41.9524 35.326 41.9089 35.326 41.8872V34.5004C35.326 34.457 35.326 34.4135 35.326 34.3701C35.326 34.3484 35.326 34.3049 35.326 34.2832V26.8964C35.326 26.853 35.326 26.8095 35.326 26.7661C35.326 25.0497 34.3049 22.6165 29.4601 20.7915C26.2881 19.5749 22.0951 18.9231 17.663 18.9231C13.231 18.9231 9.0379 19.5749 5.86594 20.7698C1.02111 22.573 0 25.0063 0 26.7444V34.2615C0 34.2832 0 34.3266 0 34.3484V41.8655C0 41.8872 0 41.9306 0 41.9524V42.0393V49.4695V49.5564C0 49.5781 0 49.6215 0 49.6433V57.1604C0 57.1821 0 57.2255 0 57.2473V64.7644C0 66.4807 1.02111 68.914 5.86594 70.7389C9.0379 71.9338 13.231 72.5856 17.663 72.5856C18.6189 72.5856 19.5531 72.5639 20.4874 72.4987V71.76V71.6731C20.4874 71.6514 20.4874 71.6514 20.4874 71.6297C20.4874 71.608 20.4874 71.5862 20.4874 71.5862V68.6098C19.5749 68.675 18.6189 68.7184 17.663 68.7184C13.6872 68.7184 9.97211 68.1536 7.23466 67.1325C4.51895 66.1114 3.8889 65.0902 3.8889 64.8295V62.3745C4.45377 62.6787 5.12727 62.9611 5.86594 63.2436C9.0379 64.4385 13.231 65.0902 17.663 65.0902C18.6189 65.0902 19.5531 65.0685 20.4874 65.0033V64.0691C20.4874 64.0474 20.4874 64.0474 20.4874 64.0257C20.4874 64.004 20.4874 63.9822 20.4874 63.9822V61.0058C19.5749 61.071 18.6189 61.1144 17.663 61.1144C13.6872 61.1144 9.97211 60.5496 7.23466 59.5285C4.51895 58.5074 3.8889 57.4862 3.8889 57.2255V54.7923C4.45377 55.0964 5.12727 55.3789 5.86594 55.6613C9.0379 56.8562 13.231 57.508 17.663 57.508C18.6189 57.508 19.5531 57.4862 20.4874 57.4211V56.4869C20.4874 55.6178 20.6177 54.4881 21.1391 53.2715C20.0094 53.3801 18.8579 53.4235 17.663 53.4235C13.6872 53.4235 9.97211 52.8587 7.23466 51.8376C4.51895 50.8165 3.8889 49.7953 3.8889 49.5346V47.1014C4.4755 47.3403 5.12727 47.6445 5.86594 47.9269ZM7.23466 24.4197C9.99383 23.3986 13.7089 22.8337 17.663 22.8337C21.6388 22.8337 25.3539 23.3986 28.0914 24.4197C30.7202 25.3974 31.3719 26.375 31.4154 26.7009V26.7661C31.3719 27.092 30.7202 28.0696 28.0914 29.0473C25.3322 30.0684 21.6171 30.6333 17.663 30.6333C13.6872 30.6333 9.97211 30.0684 7.23466 29.0473C4.51895 28.0262 3.8889 27.0051 3.8889 26.7444C3.8889 26.4836 4.51895 25.4191 7.23466 24.4197ZM3.8889 31.8064C4.45377 32.1106 5.12727 32.393 5.86594 32.6755C9.0379 33.8704 13.231 34.5222 17.663 34.5222C22.0951 34.5222 26.2881 33.8704 29.4601 32.6755C30.1987 32.393 30.8505 32.1106 31.4371 31.8064V34.2397V34.2615C31.3937 34.5873 30.7419 35.565 28.1131 36.5427C25.3539 37.5638 21.6388 38.1286 17.6847 38.1286C13.7089 38.1286 9.99383 37.5638 7.25639 36.5427C4.54068 35.5215 3.91063 34.5004 3.91063 34.2397V31.8064H3.8889ZM3.8889 39.4322C4.45377 39.7363 5.12727 40.0188 5.86594 40.3012C9.0379 41.4961 13.231 42.1479 17.663 42.1479C22.0951 42.1479 26.2881 41.4961 29.4601 40.3012C30.1987 40.0188 30.8505 39.7363 31.4371 39.4322V41.8655V41.8872C31.3937 42.2131 30.7419 43.1907 28.1131 44.1684C25.3539 45.1895 21.6388 45.7544 17.6847 45.7544C13.7089 45.7544 9.99383 45.1895 7.25639 44.1684C4.54068 43.1473 3.91063 42.1262 3.91063 41.8655V39.4322H3.8889Z" fill="white" fill-opacity="0.26"/>
<path d="M53.8581 50.469C50.6861 49.2741 46.493 48.6223 42.061 48.6223C37.629 48.6223 33.4359 49.2741 30.2639 50.469C25.4191 52.2722 24.398 54.7055 24.398 56.4436V63.9607C24.398 63.9824 24.398 64.0259 24.398 64.0476V71.5647C24.398 71.5864 24.398 71.6299 24.398 71.6516V71.7385V79.1687V79.2556C24.398 80.9719 25.4191 83.4052 30.2639 85.2302C33.4359 86.4251 37.629 87.0769 42.061 87.0769C46.493 87.0769 50.6861 86.4251 53.8581 85.2302C58.7029 83.4269 59.724 80.9936 59.724 79.2556V79.1687V71.7819C59.724 71.7385 59.724 71.695 59.724 71.6516C59.724 71.6299 59.724 71.5864 59.724 71.5647V64.1779C59.724 64.1345 59.724 64.091 59.724 64.0476C59.724 64.0259 59.724 63.9824 59.724 63.9607V56.5739C59.724 56.5305 59.724 56.487 59.724 56.4436C59.7457 54.7272 58.7246 52.294 53.8581 50.469ZM31.6327 54.1406C34.3918 53.1195 38.1069 52.5547 42.061 52.5547C46.0368 52.5547 49.7519 53.1195 52.4893 54.1406C55.1182 55.1183 55.7917 56.096 55.8134 56.4219V56.487C55.7699 56.8129 55.1182 57.7906 52.4893 58.7682C49.7302 59.7893 46.0151 60.3542 42.061 60.3542C38.0852 60.3542 34.3701 59.7893 31.6327 58.7682C28.9169 57.7471 28.2869 56.726 28.2869 56.4653C28.2869 56.2046 28.8952 55.14 31.6327 54.1406ZM52.5111 81.5151C49.7519 82.5362 46.0368 83.101 42.0827 83.101C38.1069 83.101 34.3918 82.5362 31.6544 81.5151C28.9387 80.494 28.3086 79.4729 28.3086 79.2121V76.7789C28.8735 77.083 29.547 77.3655 30.2857 77.6479C33.4576 78.8428 37.6507 79.4946 42.0827 79.4946C46.5148 79.4946 50.7078 78.8428 53.8798 77.6479C54.6185 77.3655 55.2702 77.083 55.8568 76.7789V79.2121C55.8351 79.4729 55.2268 80.494 52.5111 81.5151ZM55.8351 71.5864V71.6081C55.7917 71.934 55.1399 72.9117 52.5111 73.8893C49.7519 74.9104 46.0368 75.4753 42.0827 75.4753C38.1069 75.4753 34.3918 74.9104 31.6544 73.8893C28.9387 72.8682 28.3086 71.8471 28.3086 71.5864V69.1531C28.8735 69.4573 29.547 69.7397 30.2857 70.0222C33.4576 71.2171 37.6507 71.8688 42.0827 71.8688C46.5148 71.8688 50.7078 71.2171 53.8798 70.0222C54.6185 69.7397 55.2702 69.4573 55.8568 69.1531L55.8351 71.5864ZM55.8351 63.9607V63.9824C55.7917 64.3083 55.1399 65.2859 52.5111 66.2636C49.7519 67.2847 46.0368 67.8496 42.0827 67.8496C38.1069 67.8496 34.3918 67.2847 31.6544 66.2636C28.9387 65.2425 28.3086 64.2214 28.3086 63.9607V61.5274C28.8735 61.8316 29.547 62.114 30.2857 62.3964C33.4576 63.5913 37.6507 64.2431 42.0827 64.2431C46.5148 64.2431 50.7078 63.5913 53.8798 62.3964C54.6185 62.114 55.2702 61.8316 55.8568 61.5274L55.8351 63.9607Z" fill="white" fill-opacity="0.26"/>
</svg>
