<svg width="106" height="106" viewBox="0 0 106 106" fill="none" xmlns="http://www.w3.org/2000/svg">
<path d="M90.4768 68.5232C84.7041 62.7508 77.8332 58.4774 70.3366 55.8906C78.3657 50.3606 83.6406 41.1056 83.6406 30.6406C83.6406 13.7454 69.8952 0 53 0C36.1048 0 22.3594 13.7454 22.3594 30.6406C22.3594 41.1056 27.6343 50.3606 35.6636 55.8906C28.167 58.4774 21.2961 62.7508 15.5234 68.5232C5.51304 78.5338 0 91.8432 0 106H8.28125C8.28125 81.342 28.342 61.2812 53 61.2812C77.658 61.2812 97.7188 81.342 97.7188 106H106C106 91.8432 100.487 78.5338 90.4768 68.5232ZM53 53C40.6711 53 30.6406 42.9697 30.6406 30.6406C30.6406 18.3115 40.6711 8.28125 53 8.28125C65.3289 8.28125 75.3594 18.3115 75.3594 30.6406C75.3594 42.9697 65.3289 53 53 53Z" fill="white" fill-opacity="0.26"/>
</svg>
