<svg width="106" height="106" viewBox="0 0 106 106" fill="none" xmlns="http://www.w3.org/2000/svg">
<g clip-path="url(#clip0)">
<path d="M81.221 17.5743C81.2671 17.5777 81.3132 17.5811 81.3602 17.5811C81.4398 17.5811 81.5195 17.5743 81.5975 17.5634C83.6846 17.6062 85.3551 19.3085 85.3576 21.3956C85.3576 22.3441 86.1265 23.113 87.0749 23.113C88.0233 23.113 88.7923 22.3441 88.7923 21.3956C88.7881 17.9819 86.4116 15.0285 83.0775 14.2939V12.6436C83.0775 11.6952 82.3086 10.9263 81.3602 10.9263C80.4118 10.9263 79.6428 11.6952 79.6428 12.6436V14.3719C76.1175 15.3144 73.8366 18.7248 74.3121 22.3432C74.7876 25.9616 77.8718 28.6668 81.5212 28.6668C83.6402 28.6668 85.3576 30.385 85.3576 32.504C85.3576 34.6222 83.6402 36.3404 81.5212 36.3404C79.4021 36.3404 77.6848 34.6222 77.6848 32.504C77.6848 31.5556 76.9158 30.7866 75.9674 30.7866C75.019 30.7866 74.25 31.5556 74.25 32.504C74.2542 35.7945 76.4647 38.6733 79.6428 39.5278V41.4095C79.6428 42.3579 80.4118 43.1268 81.3602 43.1268C82.3086 43.1268 83.0775 42.3579 83.0775 41.4095V39.6066C86.7043 38.8125 89.1504 35.413 88.7504 31.7216C88.3512 28.0303 85.2343 25.2329 81.5212 25.2337C79.4608 25.2346 77.7678 23.6078 77.6864 21.5491C77.6059 19.4904 79.1665 17.7353 81.221 17.5752V17.5743Z" fill="white" fill-opacity="0.26"/>
<path d="M81.6194 2.52881C71.0544 2.52881 62.0382 9.42258 58.6605 18.6534H16.0358C15.0915 18.6534 14.3251 19.5046 14.3184 20.4479L13.9125 80.6932H1.76265C0.81424 80.6932 0 81.38 0 82.3301V89.9752C0.0218024 97.1725 5.69046 103.085 12.8803 103.411V103.448H65.904V103.398C66.3333 103.414 66.5103 103.448 66.782 103.448H66.8188C74.2602 103.437 80.2869 97.4006 80.2869 89.9592V51.3051C80.7163 51.3286 81.1708 51.3412 81.6152 51.3412C95.0598 51.3412 106 40.3796 106 26.9342C106 13.4896 95.0648 2.52881 81.6194 2.52881ZM13.5335 100.014H13.5226C7.96714 100.006 3.45989 95.5138 3.43474 89.9576V84.1279H53.2384V89.9333C53.2409 93.5172 54.6723 96.9528 57.2148 99.4794C57.3951 99.6597 57.619 99.7989 57.8077 100.014H13.5335ZM76.8522 89.9576C76.853 95.5038 72.3626 100.003 66.8172 100.014H66.7845C61.2164 100.003 56.7008 95.5021 56.6731 89.9349V82.3301C56.6874 81.8906 56.5197 81.4655 56.2086 81.1552C55.8975 80.845 55.4723 80.6781 55.0338 80.6932H17.3473L17.7414 22.0881H57.7071C57.4027 23.6604 57.245 25.257 57.2366 26.8579C57.2333 30.2431 57.9394 33.5906 59.3096 36.6857H43.0885C42.1392 36.6857 41.3711 37.4547 41.3711 38.4031C41.3711 39.3515 42.1392 40.1205 43.0885 40.1205H61.1728C64.7157 45.6918 70.3794 49.576 76.8522 50.8758V89.9576ZM81.6194 47.9073C70.0507 47.9073 60.6714 38.5289 60.6722 26.9593C60.6722 15.3898 70.0507 6.01133 81.6202 6.01133C93.189 6.01133 102.567 15.3906 102.567 26.9593C102.555 38.523 93.184 47.8947 81.6194 47.9073Z" fill="white" fill-opacity="0.26"/>
<path d="M32.0647 48.1162C29.0333 48.1162 26.5679 50.5036 26.5679 53.4386C26.5679 56.3735 29.0333 58.7609 32.0647 58.7609C35.0961 58.7609 37.5623 56.3735 37.5623 53.4386C37.5623 50.5036 35.0961 48.1162 32.0647 48.1162ZM32.0647 55.3262C30.9268 55.3262 30.0027 54.4792 30.0027 53.4386C30.0027 52.3971 30.9276 51.551 32.0647 51.551C33.2018 51.551 34.1276 52.3979 34.1276 53.4386C34.1276 54.4792 33.2018 55.3262 32.0647 55.3262Z" fill="white" fill-opacity="0.26"/>
<path d="M41.3711 53.4291C41.3711 54.3776 42.1392 55.1466 43.0885 55.1466H65.9844C66.9328 55.1466 67.7018 54.3776 67.7018 53.4291C67.7018 52.4807 66.9328 51.7117 65.9844 51.7117H43.0885C42.1392 51.7117 41.3711 52.4807 41.3711 53.4291Z" fill="white" fill-opacity="0.26"/>
<path d="M32.0647 33.186C29.0333 33.186 26.5679 35.5743 26.5679 38.5092C26.5679 41.4442 29.0333 43.8315 32.0647 43.8315C35.0961 43.8315 37.5623 41.4442 37.5623 38.5092C37.5623 35.5743 35.0961 33.186 32.0647 33.186ZM32.0647 40.3968C30.9268 40.3968 30.0027 39.5499 30.0027 38.5092C30.0027 37.4686 30.9276 36.6208 32.0647 36.6208C33.2018 36.6208 34.1276 37.4677 34.1276 38.5092C34.1276 39.5499 33.2018 40.3976 32.0647 40.3976V40.3968Z" fill="white" fill-opacity="0.26"/>
<path d="M32.0647 63.043C29.0333 63.043 26.5679 65.4303 26.5679 68.3652C26.5679 71.3001 29.0333 73.6875 32.0647 73.6875C35.0961 73.6875 37.5623 71.3001 37.5623 68.3652C37.5623 65.4303 35.0961 63.043 32.0647 63.043ZM32.0647 70.2528C30.9268 70.2528 30.0027 69.4067 30.0027 68.3652C30.0027 67.3246 30.9276 66.4776 32.0647 66.4776C33.2018 66.4776 34.1276 67.3246 34.1276 68.3652C34.1276 69.4058 33.2018 70.2528 32.0647 70.2528Z" fill="white" fill-opacity="0.26"/>
<path d="M65.9844 66.7397H43.0885C42.1392 66.7397 41.3711 67.5087 41.3711 68.4571C41.3711 69.4055 42.1392 70.1744 43.0885 70.1744H65.9844C66.9328 70.1744 67.7018 69.4055 67.7018 68.4571C67.7018 67.5087 66.9328 66.7397 65.9844 66.7397Z" fill="white" fill-opacity="0.26"/>
</g>
<defs>
<clipPath id="clip0">
<rect width="106" height="106" fill="white"/>
</clipPath>
</defs>
</svg>
