<svg width="106" height="106" viewBox="0 0 106 106" fill="none" xmlns="http://www.w3.org/2000/svg">
<g clip-path="url(#clip0)">
<path d="M46.6386 53.7271C61.5647 53.7262 66.9352 38.7813 68.3411 26.505C70.073 11.382 62.9214 0 46.6386 0C30.3579 0 23.2028 11.3811 24.936 26.505C26.3433 38.7813 31.7122 53.7281 46.6386 53.7271Z" fill="white" fill-opacity="0.26"/>
<path d="M79.2761 59.9483C79.7564 59.9483 80.2336 59.9626 80.7075 59.989C79.9972 58.9757 79.175 58.082 78.2128 57.3635C75.3448 55.2229 71.6303 54.5206 68.3465 53.2302C66.748 52.6024 65.3167 51.9787 63.973 51.2686C59.4378 56.2421 53.5238 58.8437 46.6369 58.8444C39.7523 58.8444 33.8388 56.2428 29.3042 51.2686C27.9605 51.9789 26.5288 52.6024 24.9307 53.2302C21.6469 54.5208 17.9326 55.2229 15.0643 57.3635C10.1041 61.0658 8.82227 69.3942 7.8151 75.0752C6.9839 79.7649 6.42549 84.5506 6.26251 89.3141C6.13624 93.0038 7.95799 93.5212 11.0448 94.635C14.9098 96.029 18.9006 97.0638 22.9182 97.9122C30.6772 99.5507 38.675 100.81 46.6383 100.866C50.4969 100.838 54.3633 100.527 58.2069 100.029C55.361 95.9055 53.6918 90.9106 53.6918 85.5327C53.692 71.4252 65.1689 59.9483 79.2761 59.9483Z" fill="white" fill-opacity="0.26"/>
<path d="M79.2761 65.0652C67.9725 65.0652 58.8085 74.2292 58.8085 85.5328C58.8085 96.8363 67.9723 106 79.2761 106C90.5798 106 99.7438 96.8363 99.7438 85.5328C99.7436 74.229 90.5796 65.0652 79.2761 65.0652ZM88.2306 89.0443H82.7877V94.487C82.7877 96.4265 81.2156 97.9989 79.2762 97.9989C77.3367 97.9989 75.7644 96.4265 75.7644 94.487V89.0443H70.3217C68.3821 89.0443 66.8098 87.4721 66.8098 85.5324C66.8098 83.5929 68.382 82.0205 70.3217 82.0205H75.7644V76.5778C75.7644 74.6383 77.3367 73.066 79.2762 73.066C81.2158 73.066 82.7877 74.6383 82.7877 76.5778V82.0205H88.2306C90.1702 82.0205 91.7425 83.5929 91.7425 85.5324C91.7423 87.4723 90.1703 89.0443 88.2306 89.0443Z" fill="white" fill-opacity="0.26"/>
</g>
<defs>
<clipPath id="clip0">
<rect width="106" height="106" fill="white"/>
</clipPath>
</defs>
</svg>
