<svg width="31" height="31" viewBox="0 0 31 31" fill="none" xmlns="http://www.w3.org/2000/svg">
<path d="M0 6.8889C0 5.93774 0.771065 5.16668 1.72222 5.16668H29.2778C30.2289 5.16668 31 5.93774 31 6.8889C31 7.84006 30.2289 8.61112 29.2778 8.61112H1.72222C0.771065 8.61112 0 7.84006 0 6.8889ZM0 15.5C0 14.5489 0.771065 13.7778 1.72222 13.7778H29.2778C30.2289 13.7778 31 14.5489 31 15.5C31 16.4512 30.2289 17.2222 29.2778 17.2222H1.72222C0.771065 17.2222 0 16.4512 0 15.5ZM1.72222 25.8333C0.771065 25.8333 0 25.0623 0 24.1111C0 23.16 0.771065 22.3889 1.72222 22.3889H29.2778C30.2289 22.3889 31 23.16 31 24.1111C31 25.0623 30.2289 25.8333 29.2778 25.8333H1.72222Z" fill="#4F4F4F"/>
</svg>
