<svg width="14" height="14" viewBox="0 0 14 14" fill="none" xmlns="http://www.w3.org/2000/svg">
<g clip-path="url(#clip0)">
<path d="M13.0932 0.907054C11.888 -0.301049 9.92824 -0.301049 8.72312 0.907054L0.710862 8.91633C0.64822 8.97897 0.609441 9.05951 0.597509 9.14602L0.00389841 13.5429C-0.0139994 13.6682 0.0307451 13.7935 0.117251 13.88C0.191825 13.9546 0.296229 13.9993 0.400633 13.9993C0.418531 13.9993 0.436429 13.9993 0.454327 13.9963L3.1032 13.6384C3.32394 13.6085 3.47906 13.4057 3.44923 13.185C3.4194 12.9642 3.21656 12.8091 2.99582 12.8389L0.871943 13.1253L1.28658 10.0588L4.51415 13.2864C4.58872 13.361 4.69313 13.4057 4.79753 13.4057C4.90193 13.4057 5.00634 13.3639 5.08091 13.2864L13.0932 5.2771C13.6778 4.69244 14 3.91687 14 3.09059C14 2.2643 13.6778 1.48873 13.0932 0.907054ZM8.87823 1.89143L10.2236 3.23675L2.91229 10.548L1.56697 9.20269L8.87823 1.89143ZM4.80051 12.4332L3.48502 11.1178L10.7963 3.8065L12.1118 5.12199L4.80051 12.4332ZM12.6726 4.54628L9.45395 1.32765C9.86261 0.990577 10.3727 0.805633 10.9096 0.805633C11.5211 0.805633 12.0939 1.04427 12.5264 1.47382C12.9589 1.90337 13.1946 2.47908 13.1946 3.09059C13.1946 3.6305 13.0096 4.13761 12.6726 4.54628Z" fill="white"/>
</g>
<defs>
<clipPath id="clip0">
<rect width="14" height="14" fill="white"/>
</clipPath>
</defs>
</svg>
