<svg width="14" height="14" viewBox="0 0 14 14" fill="none" xmlns="http://www.w3.org/2000/svg">
<path d="M13.3347 2.41525C13.2801 2.36069 13.2102 2.33326 13.1252 2.33326H10.3086L9.67061 0.811212C9.5795 0.586333 9.41541 0.394911 9.17855 0.236915C8.94148 0.0789503 8.70134 0 8.45836 0H5.54161C5.29863 0 5.05855 0.0789503 4.82157 0.236915C4.58456 0.394911 4.4205 0.586301 4.32932 0.811212L3.6913 2.33326H0.874886C0.789742 2.33326 0.719954 2.36069 0.665235 2.41525C0.610675 2.46993 0.583252 2.53985 0.583252 2.6249V3.20829C0.583252 3.29334 0.610548 3.36326 0.665235 3.41785C0.719954 3.4725 0.78987 3.49983 0.874886 3.49983H1.74982V12.177C1.74982 12.6815 1.89262 13.1113 2.17819 13.4667C2.46382 13.8223 2.80714 14 3.20821 14H10.7917C11.1929 14 11.5362 13.8162 11.8218 13.4487C12.1073 13.0809 12.2501 12.645 12.2501 12.1407V3.49983H13.1251C13.2101 3.49983 13.2801 3.4725 13.3347 3.41785C13.3892 3.36329 13.4167 3.29334 13.4167 3.20829V2.6249C13.4168 2.53985 13.3892 2.46993 13.3347 2.41525ZM5.40493 1.26672C5.44743 1.21206 5.49911 1.17854 5.55987 1.16647H8.4492C8.50995 1.17864 8.56173 1.21213 8.60416 1.26672L9.04182 2.33314H4.95831L5.40493 1.26672ZM11.0835 12.1408C11.0835 12.2744 11.0623 12.3975 11.0197 12.5098C10.9771 12.6222 10.9329 12.7042 10.8875 12.7559C10.8418 12.8076 10.8101 12.8333 10.7918 12.8333H3.20825C3.19002 12.8333 3.15828 12.8076 3.1126 12.7559C3.06698 12.7042 3.02289 12.6222 2.98033 12.5098C2.93784 12.3975 2.91658 12.2743 2.91658 12.1408V3.49983H11.0835V12.1408H11.0835Z" fill="#F2F2F2"/>
<path d="M4.37501 11.0834H4.95831C5.04345 11.0834 5.1134 11.0561 5.16796 11.0015C5.22252 10.9466 5.24994 10.8769 5.24994 10.7917V5.54156C5.24994 5.45654 5.22252 5.38663 5.16796 5.33191C5.11324 5.27735 5.04348 5.25002 4.95831 5.25002H4.37501C4.28986 5.25002 4.22004 5.27732 4.16536 5.33191C4.11073 5.38663 4.08337 5.45654 4.08337 5.54156V10.7917C4.08337 10.8769 4.11064 10.9467 4.16536 11.0015C4.22004 11.0561 4.28986 11.0834 4.37501 11.0834Z" fill="#F2F2F2"/>
<path d="M6.70838 11.0834H7.29168C7.37679 11.0834 7.44671 11.0561 7.50124 11.0015C7.55608 10.9466 7.58325 10.8769 7.58325 10.7917V5.54156C7.58325 5.45654 7.55605 5.38663 7.50124 5.33191C7.44671 5.27735 7.37679 5.25002 7.29168 5.25002H6.70838C6.62333 5.25002 6.55342 5.27732 6.49873 5.33191C6.44401 5.38663 6.41675 5.45654 6.41675 5.54156V10.7917C6.41675 10.8769 6.44401 10.9467 6.49873 11.0015C6.55339 11.0561 6.62333 11.0834 6.70838 11.0834Z" fill="#F2F2F2"/>
<path d="M9.04182 11.0834H9.62502C9.71023 11.0834 9.78015 11.0561 9.83477 11.0015C9.88939 10.9466 9.91656 10.8769 9.91656 10.7917V5.54156C9.91656 5.45654 9.88936 5.38663 9.83477 5.33191C9.78015 5.27735 9.71023 5.25002 9.62502 5.25002H9.04182C8.95658 5.25002 8.88689 5.27732 8.83204 5.33191C8.77742 5.38663 8.75012 5.45654 8.75012 5.54156V10.7917C8.75012 10.8769 8.77742 10.9467 8.83204 11.0015C8.88689 11.0561 8.95658 11.0834 9.04182 11.0834Z" fill="#F2F2F2"/>
</svg>
