<svg width="247" height="155" viewBox="0 0 247 155" fill="none" xmlns="http://www.w3.org/2000/svg">
<path d="M104.577 91.1313L118.684 14.0078H148.081L121.979 137H91.2305L74.7583 66.8877L58.624 137H27.9604L1.77393 14.0078H31.2549L45.3618 91.1313L62.2563 14.0078H87.4292L104.577 91.1313Z" fill="#333333"/>
<path d="M207.151 114.023H166.52L159.424 137H127.747L172.855 14.0078H200.731L246.177 137H214.331L207.151 114.023ZM173.615 91.1313H200.055L186.793 48.4727L173.615 91.1313Z" fill="#E74C3C"/>
<circle cx="125" cy="93" r="44" fill="#F2994A"/>
<path d="M127.229 129.27C116.691 129.27 108.164 126.138 101.647 119.875C95.1305 113.57 91.8721 105.381 91.8721 95.3096V93.5322C91.8721 86.5075 93.1628 80.3079 95.7441 74.9336C98.3678 69.5592 102.176 65.4121 107.17 62.4922C112.163 59.5299 118.088 58.0488 124.943 58.0488C134.592 58.0488 142.209 61.0534 147.795 67.0625C153.381 73.0293 156.174 81.3659 156.174 92.0723V100.388H113.645C114.406 104.239 116.078 107.264 118.659 109.465C121.241 111.665 124.584 112.766 128.688 112.766C135.459 112.766 140.749 110.396 144.558 105.656L154.333 117.209C151.667 120.891 147.88 123.832 142.971 126.032C138.104 128.19 132.857 129.27 127.229 129.27ZM124.816 74.5527C118.553 74.5527 114.829 78.6999 113.645 86.9941H135.227V85.3438C135.311 81.916 134.444 79.2712 132.624 77.4092C130.804 75.5049 128.202 74.5527 124.816 74.5527Z" fill="#F2F2F2"/>
</svg>
